# xmcd
#
# Track frame offsets:
#	182
#	15282
#	28245
#	39580
#	52067
#	64725
#	77592
#	92237
#	106197
#	124260
#	136027
#	150207
#	164005
#	182602
#
# Disc length: 2653 seconds
#
# Revision: 1
# Processed by: cddbd v1.5.2PL0 Copyright (c) Steve Scherf et al.
# Submitted via: audiograbber 1.83.01
#
DISCID=ab0a5b0e
DTITLE=Various Artist - Heart and soul of country disc 6 of 6
DYEAR=1992
DGENRE=Country
TTITLE0=Don Williams - I Recall a Gypsy Woman
TTITLE1=Don Williams - The Story Of My Life
TTITLE2=Don Williams - It Must Be Love
TTITLE3=Don Williams - Years From Now
TTITLE4=Don Williams - Some Broken Hearts Never Mend
TTITLE5=Don Williams - You're My Best Friend
TTITLE6=Don Williams - Listen To The Radio
TTITLE7=Don Williams - Stay Young
TTITLE8=Don Williams - Only Love
TTITLE9=Don Williams - Time On My Hands
TTITLE10=Don Williams - Amanda
TTITLE11=Don Williams - Miracles
TTITLE12=Don Williams - I Believe In You
TTITLE13=Don Williams - Love Is On A Roll
EXTD=
EXTT0=
EXTT1=
EXTT2=
EXTT3=
EXTT4=
EXTT5=
EXTT6=
EXTT7=
EXTT8=
EXTT9=
EXTT10=
EXTT11=
EXTT12=
EXTT13=
PLAYORDER=
